<svg width="32" height="32" viewBox="0 0 32 32" fill="none" xmlns="http://www.w3.org/2000/svg">
  <rect width="32" height="32" rx="4" fill="black"/>
  <path d="M8 16C8 11.5817 11.5817 8 16 8V8C20.4183 8 24 11.5817 24 16V16C24 20.4183 20.4183 24 16 24V24C11.5817 24 8 20.4183 8 16V16Z" stroke="white" stroke-width="2"/>
  <path d="M14 12H18.5C19.8807 12 21 13.1193 21 14.5V14.5C21 15.8807 19.8807 17 18.5 17H14V12Z" stroke="white" stroke-width="2"/>
  <path d="M14 17H19C20.1046 17 21 17.8954 21 19V19C21 20.1046 20.1046 21 19 21H14V17Z" stroke="white" stroke-width="2"/>
</svg>
